<svg xmlns="http://www.w3.org/2000/svg" viewBox="0 0 32 32" shape-rendering="geometricPrecision">
  <rect width="32" height="32" rx="6" fill="#0a0a0f"/>
  <g transform="translate(16, 15)">
    <path d="M0 -7.5 C3.5 -7.5 6.5 -5.5 7.75 -3 C8.625 -1 8.625 1.5 7.75 3.5 C6.75 5.5 4.5 6.75 2 7.25 C1 7.375 0 7.5 0 7.5 C0 7.5 -1 7.375 -2 7.25 C-4.5 6.75 -6.75 5.5 -7.75 3.5 C-8.625 1.5 -8.625 -1 -7.75 -3 C-6.5 -5.5 -3.5 -7.5 0 -7.5Z" fill="white" fill-opacity="0.95"/>
    <path d="M-5.5 -5.5 C-6.5 -7.5 -4.5 -9 -3.75 -6.75 C-3.375 -5.75 -4.5 -5.125 -5.5 -5.5Z" fill="white" fill-opacity="0.9"/>
    <path d="M5.5 -5.5 C6.5 -7.5 4.5 -9 3.75 -6.75 C3.375 -5.75 4.5 -5.125 5.5 -5.5Z" fill="white" fill-opacity="0.9"/>
    <circle cx="-2.75" cy="-1" r="2.25" fill="#131010"/>
    <circle cx="-2.75" cy="-1" r="1.5" fill="#6C5CE7" opacity="0.5"/>
    <circle cx="-2.75" cy="-1" r="0.9" fill="#131010"/>
    <circle cx="2.75" cy="-1" r="2.25" fill="#131010"/>
    <circle cx="2.75" cy="-1" r="1.5" fill="#6C5CE7" opacity="0.5"/>
    <circle cx="2.75" cy="-1" r="0.9" fill="#131010"/>
    <path d="M-1.25 1.75 Q0 3 1.25 1.75" stroke="#131010" stroke-width="0.35" fill="none" stroke-linecap="round"/>
  </g>
</svg>
